<?xml version="1.0" encoding="UTF-8"?>
<svg width="24px" height="24px" viewBox="0 0 24 24" version="1.1" xmlns="http://www.w3.org/2000/svg" xmlns:xlink="http://www.w3.org/1999/xlink">
    <title>icons/settings/about</title>
    <defs>
        <filter id="filter-1">
            <feColorMatrix in="SourceGraphic" type="matrix" values="0 0 0 0 0.447059 0 0 0 0 0.305882 0 0 0 0 0.905882 0 0 0 1.000000 0"></feColorMatrix>
        </filter>
        <path d="M12,15 C12.552,15 13,15.448 13,16 C13,16.552 12.552,17 12,17 C11.448,17 11,16.552 11,16 C11,15.448 11.448,15 12,15 Z M12,7 C12.552,7 13,7.448 13,8 L13,8 L13,13 C13,13.552 12.552,14 12,14 C11.448,14 11,13.552 11,13 L11,13 L11,8 C11,7.448 11.448,7 12,7 Z M12,20 C7.589,20 4,16.411 4,12 C4,7.589 7.589,4 12,4 C16.411,4 20,7.589 20,12 C20,16.411 16.411,20 12,20 M12,2 C6.477,2 2,6.477 2,12 C2,17.523 6.477,22 12,22 C17.523,22 22,17.523 22,12 C22,6.477 17.523,2 12,2" id="path-2"></path>
    </defs>
    <g id="Page-1" stroke="none" stroke-width="1" fill="none" fill-rule="evenodd">
        <g id="9P-024---settings" transform="translate(-20.000000, -370.000000)">
            <g id="settings-menu" transform="translate(20.000000, 184.000000)">
                <g id="list" transform="translate(0.000000, 169.000000)">
                    <g id="icons/settings/user" transform="translate(0.000000, 17.000000)" filter="url(#filter-1)">
                        <g>
                            <mask id="mask-3" fill="white">
                                <use xlink:href="#path-2"></use>
                            </mask>
                            <use id="🎨-Icon-Сolor" fill="#8F9BB3" xlink:href="#path-2"></use>
                        </g>
                    </g>
                </g>
            </g>
        </g>
    </g>
</svg>