<?xml version="1.0" encoding="UTF-8"?>
<svg width="44px" height="31px" viewBox="0 0 44 31" version="1.1" xmlns="http://www.w3.org/2000/svg" xmlns:xlink="http://www.w3.org/1999/xlink">
    <title>Shape</title>
    <defs>
        <linearGradient x1="50%" y1="98.818735%" x2="50%" y2="0%" id="linearGradient-1">
            <stop stop-color="#7044E9" offset="0%"></stop>
            <stop stop-color="#8281DE" offset="100%"></stop>
        </linearGradient>
        <path d="M10.6002662,22.3866746 C11.0111186,22.0449921 11.5603107,21.9208196 12.0761679,22.051659 C12.5813699,22.1793832 12.9968318,22.5350313 13.2008391,23.0131691 L13.2153874,23.0483719 L15.6096649,29.0353158 L22.1558014,22.4891793 C22.5516531,22.0933276 23.1216795,21.921653 23.6692049,22.0349916 C24.2053778,22.1441818 24.6531122,22.5107206 24.8675065,23.0138569 L24.881761,23.0483719 L27.2760386,29.0353158 L33.8221751,22.4891793 C34.209693,22.100828 34.7613853,21.92832 35.3047438,22.029158 C35.83221,22.1268369 36.2785801,22.472575 36.5071773,22.9560989 L36.5231335,22.9908692 L39.8557879,30.4903832 C40.2299719,31.3320889 39.8507876,32.3163011 39.0099154,32.6904851 C38.1762622,33.0583459 37.2077061,32.6948056 36.8240982,31.8759275 L36.8098135,31.8446126 L34.4622047,26.5618679 L27.8443982,33.1796744 C27.4493799,33.5763595 26.8810203,33.7480341 26.3309948,33.6338621 C25.7948218,33.5246719 25.3470875,33.1581331 25.1326932,32.6549969 L25.1184386,32.6204819 L22.7241611,26.6335379 L16.1780246,33.1796744 C15.7830063,33.5763595 15.21548,33.7480341 14.6646211,33.6338621 C14.1284482,33.5246719 13.6807138,33.1581331 13.4663195,32.6549969 L13.452065,32.6204819 L10.9702834,26.4168612 L2.73240183,33.2821792 C2.42072073,33.5413578 2.04236987,33.6680304 1.66651913,33.6680304 C1.18899701,33.6680304 0.714808385,33.4638543 0.386459844,33.0680026 C-0.194772031,32.3700311 -0.110172453,31.3387383 0.571455045,30.7445639 L0.599803058,30.7203939 L10.6002662,22.3866746 Z M22.1558014,7.48848454 C22.5516531,7.09263287 23.1216795,6.92095825 23.6692049,7.03429684 C24.2053778,7.14348708 24.6531122,7.51002587 24.8675065,8.01316211 L24.881761,8.04767711 L27.2760386,14.0346211 L33.8221751,7.48848454 C34.209693,7.10013322 34.7613853,6.92762523 35.3047438,7.02846323 C35.83221,7.12614218 36.2785801,7.4718802 36.5071773,7.95540417 L36.5231335,7.99017444 L39.8557879,15.4896884 C40.2299719,16.3313941 39.8507876,17.3156063 39.0099154,17.6897903 C38.1762622,18.0576511 37.2077061,17.6941109 36.8240982,16.8752328 L36.8098135,16.8439178 L34.4622047,11.5611732 L27.8443982,18.1789797 C27.4493799,18.5748313 26.8810203,18.7473393 26.3309948,18.6331674 C25.7948218,18.5239771 25.3470875,18.1574383 25.1326932,17.6543021 L25.1184386,17.6197871 L22.7241611,11.6328432 L16.1780246,18.1789797 C15.7830063,18.5748313 15.21548,18.7473393 14.6646211,18.6331674 C14.1284482,18.5239771 13.6807138,18.1574383 13.4663195,17.6543021 L13.452065,17.6197871 L10.9702834,11.4161665 L2.73240183,18.2814844 C2.42072073,18.5406631 2.04236987,18.6673356 1.66651913,18.6673356 C1.18899701,18.6673356 0.714808385,18.4631595 0.386459844,18.0673078 C-0.194772031,17.3693363 -0.110172453,16.3380436 0.571455045,15.7438692 L0.599803058,15.7196991 L10.6002662,7.38597979 C11.0111186,7.0442973 11.5603107,6.92095825 12.0761679,7.05096428 C12.5813699,7.17868845 12.9968318,7.53433653 13.2008391,8.01247434 L13.2153874,8.04767711 L15.6096649,14.0346211 L22.1558014,7.48848454 Z" id="path-2"></path>
        <filter x="-8.8%" y="-9.4%" width="117.5%" height="126.2%" filterUnits="objectBoundingBox" id="filter-3">
            <feOffset dx="0" dy="1" in="SourceAlpha" result="shadowOffsetOuter1"></feOffset>
            <feGaussianBlur stdDeviation="1" in="shadowOffsetOuter1" result="shadowBlurOuter1"></feGaussianBlur>
            <feColorMatrix values="0 0 0 0 0   0 0 0 0 0   0 0 0 0 0  0 0 0 0.2 0" type="matrix" in="shadowBlurOuter1"></feColorMatrix>
        </filter>
    </defs>
    <g id="Page-1" stroke="none" stroke-width="1" fill="none" fill-rule="evenodd">
        <g id="9P-024---horoscope" transform="translate(-209.000000, -558.000000)">
            <g id="item" transform="translate(195.000000, 536.000000)">
                <g id="Shape" transform="translate(16.000000, 16.000000)">
                    <use fill="black" fill-opacity="1" filter="url(#filter-3)" xlink:href="#path-2"></use>
                    <use fill="url(#linearGradient-1)" fill-rule="evenodd" xlink:href="#path-2"></use>
                </g>
            </g>
        </g>
    </g>
</svg>