<?xml version="1.0" encoding="UTF-8"?>
<svg width="40px" height="36px" viewBox="0 0 40 36" version="1.1" xmlns="http://www.w3.org/2000/svg" xmlns:xlink="http://www.w3.org/1999/xlink">
    <title>Path</title>
    <defs>
        <linearGradient x1="50%" y1="98.818735%" x2="50%" y2="0%" id="linearGradient-1">
            <stop stop-color="#7044E9" offset="0%"></stop>
            <stop stop-color="#8281DE" offset="100%"></stop>
        </linearGradient>
    </defs>
    <g id="Page-1" stroke="none" stroke-width="1" fill="none" fill-rule="evenodd">
        <g id="9P-024---horoscope" transform="translate(-36.000000, -278.000000)" fill="url(#linearGradient-1)">
            <g id="item" transform="translate(20.000000, 260.000000)">
                <g id="icon" transform="translate(16.000000, 16.000000)">
                    <path d="M31.8716667,2 C28.04,2 24.7158333,4.54863636 23.7875,8.19772727 C23.7766667,8.24027273 23.7683333,8.28281818 23.7608333,8.32618182 L20,30.539 L16.24,8.32536364 C16.2325,8.282 16.2233333,8.23945455 16.2125,8.19690909 C15.2833333,4.54863636 11.9591667,2 8.125,2 C3.645,2 0,5.57872727 0,9.97809091 C0,11.6013636 0.644166667,13.1280909 1.81333333,14.276 L5.48833333,17.8841818 C6.13833333,18.5231818 7.195,18.5231818 7.845,17.8841818 C8.49583333,17.2451818 8.49583333,16.2093636 7.845,15.5703636 L4.17,11.9621818 C3.63083333,11.432 3.33333333,10.7275455 3.33333333,9.97727273 C3.33333333,7.38363636 5.48333333,5.27272727 8.12833333,5.27272727 C10.4058333,5.27272727 12.385,6.77409091 12.9633333,8.93245455 L17.5466667,36.0126364 C17.5541667,36.056 17.5633333,36.0985455 17.5741667,36.1410909 C17.8575,37.253 18.8325,38 20,38 C21.1675,38 22.1416667,37.253 22.425,36.1410909 C22.4366667,36.0985455 22.445,36.056 22.4525,36.0126364 L27.0366667,8.93163636 C27.615,6.77409091 29.5941667,5.27272727 31.875,5.27272727 C34.5175,5.27272727 36.6666667,7.38363636 36.6666667,9.97809091 C36.6666667,10.7275455 36.37,11.432 35.8291667,11.9621818 L32.155,15.5703636 C31.5041667,16.2093636 31.5041667,17.2451818 32.155,17.8841818 C32.8058333,18.5231818 33.8608333,18.5231818 34.5116667,17.8841818 L38.1858333,14.2768182 C39.3558333,13.1289091 40,11.6013636 40,9.97727273 C40,5.57872727 36.355,2 31.8716667,2 Z" id="Path"></path>
                </g>
            </g>
        </g>
    </g>
</svg>