<?xml version="1.0" encoding="UTF-8"?>
<svg width="44px" height="33px" viewBox="0 0 44 33" version="1.1" xmlns="http://www.w3.org/2000/svg" xmlns:xlink="http://www.w3.org/1999/xlink">
    <title>Shape</title>
    <defs>
        <linearGradient x1="50%" y1="98.818735%" x2="50%" y2="0%" id="linearGradient-1">
            <stop stop-color="#7044E9" offset="0%"></stop>
            <stop stop-color="#8281DE" offset="100%"></stop>
        </linearGradient>
        <path d="M32.5,18.1040629 C36.6358333,18.1040629 40,21.4690629 40,25.6040629 C40,29.6582295 36.7641667,32.9640629 32.74,33.0915629 C29.6108333,33.9082295 26.4033333,34.3190629 23.2016667,34.3190629 C18.0432667,34.3190629 12.9025307,33.2692069 8.12819211,31.1982488 L7.53333333,30.9340629 L0.9775,27.9540629 C0.139166667,27.5732295 -0.230833333,26.5857295 0.15,25.7473962 C0.510462963,24.9548499 1.41428755,24.5822753 2.21561757,24.8634443 L2.35583333,24.9198962 L8.91166667,27.8998962 C14.6041667,30.4882295 20.9016667,31.4582295 27.0691667,30.7623962 C25.7908333,29.4165629 25,27.6023962 25,25.6040629 C25,21.4690629 28.3641667,18.1040629 32.5,18.1040629 Z M32.5,21.4373962 C30.2025,21.4373962 28.3333333,23.3065629 28.3333333,25.6040629 C28.3333333,27.9015629 30.2025,29.7707295 32.5,29.7707295 C34.7975,29.7707295 36.6666667,27.9015629 36.6666667,25.6040629 C36.6666667,23.3065629 34.7975,21.4373962 32.5,21.4373962 Z M7.2475,7.22572952 C15.4412778,5.08439619 24.1784103,5.76340854 31.9382833,9.14747409 L32.4658333,9.38239619 L39.0225,12.3623962 C39.86,12.7432295 40.23,13.7315629 39.8491667,14.5690629 C39.57,15.1832295 38.965,15.5465629 38.3316667,15.5465629 C38.1585417,15.5465629 37.9835417,15.5193754 37.8122917,15.462891 L37.6425,15.3965629 L31.0866667,12.4165629 C25.395,9.82906286 19.0975,8.85989619 12.9308333,9.55489619 C14.21,10.9007295 15,12.7140629 15,14.7123962 C15,18.8473962 11.6358333,22.2123962 7.5,22.2123962 C3.36416667,22.2123962 0,18.8473962 0,14.7123962 C0,10.6615629 3.23,7.35906286 7.2475,7.22572952 Z M7.5,10.5457295 C5.2025,10.5457295 3.33333333,12.4148962 3.33333333,14.7123962 C3.33333333,17.0098962 5.2025,18.8790629 7.5,18.8790629 C9.7975,18.8790629 11.6666667,17.0098962 11.6666667,14.7123962 C11.6666667,12.4148962 9.7975,10.5457295 7.5,10.5457295 Z" id="path-2"></path>
        <filter x="-8.7%" y="-8.8%" width="117.5%" height="124.7%" filterUnits="objectBoundingBox" id="filter-3">
            <feOffset dx="0" dy="1" in="SourceAlpha" result="shadowOffsetOuter1"></feOffset>
            <feGaussianBlur stdDeviation="1" in="shadowOffsetOuter1" result="shadowBlurOuter1"></feGaussianBlur>
            <feColorMatrix values="0 0 0 0 0   0 0 0 0 0   0 0 0 0 0  0 0 0 0.2 0" type="matrix" in="shadowBlurOuter1"></feColorMatrix>
        </filter>
    </defs>
    <g id="Page-1" stroke="none" stroke-width="1" fill="none" fill-rule="evenodd">
        <g id="9P-024---horoscope" transform="translate(-297.000000, -281.000000)">
            <g id="item" transform="translate(283.000000, 260.000000)">
                <g id="Shape" transform="translate(16.000000, 16.000000)">
                    <use fill="black" fill-opacity="1" filter="url(#filter-3)" xlink:href="#path-2"></use>
                    <use fill="url(#linearGradient-1)" fill-rule="evenodd" xlink:href="#path-2"></use>
                </g>
            </g>
        </g>
    </g>
</svg>