<?xml version="1.0" encoding="UTF-8"?>
<svg width="39px" height="44px" viewBox="0 0 39 44" version="1.1" xmlns="http://www.w3.org/2000/svg" xmlns:xlink="http://www.w3.org/1999/xlink">
    <title>Shape</title>
    <defs>
        <linearGradient x1="50%" y1="98.818735%" x2="50%" y2="0%" id="linearGradient-1">
            <stop stop-color="#7044E9" offset="0%"></stop>
            <stop stop-color="#8281DE" offset="100%"></stop>
        </linearGradient>
        <path d="M31.3324392,26.6665972 C29.6274304,26.6665972 27.8124209,27.8466034 26.3324132,29.1424435 L26.3324132,15.8332075 C26.3324132,12.7606915 24.8065719,9.90984328 22.2507253,8.20650108 C19.1615425,6.14649035 15.1698551,6.14649035 12.0815056,8.20650108 C11.6065032,8.52316939 11.1806676,8.89067131 10.7798322,9.28067334 C9.97732801,5.98232282 8.30648597,2.94980703 5.84480648,0.488127542 C5.1948031,-0.162709181 4.13813093,-0.162709181 3.48812754,0.488127542 C2.83729082,1.13896427 2.83729082,2.19396976 3.48812754,2.84480648 C6.39647602,5.75482164 7.99898437,9.62317512 7.99898437,13.7373632 L7.99898437,15.8332075 L7.99898437,18.3332205 L7.99898437,33.3332986 C7.99898437,34.2533034 8.74565493,34.999974 9.66565972,34.999974 C10.5856645,34.999974 11.3323351,34.2533034 11.3323351,33.3332986 L11.3323351,18.3332205 L11.3323351,15.8332075 C11.3323351,13.8781973 12.3031735,12.0640212 13.9298486,10.9798489 C15.8956922,9.66900869 18.4357054,9.66984203 20.401549,10.9798489 C22.0282241,12.0640212 22.9990625,13.8781973 22.9990625,15.8332075 L22.9990625,32.643295 L20.8448846,34.7983062 C19.639045,36.0024792 18.0365366,36.6666493 16.3323611,36.6666493 C15.4123563,36.6666493 14.6656858,37.4133199 14.6656858,38.3333247 C14.6656858,39.2533294 15.4123563,40 16.3323611,40 C18.9265413,40 21.366554,38.9899947 23.2015635,37.1549852 L24.5690707,35.7874781 C26.1432455,37.5058203 28.851593,40 31.3324392,40 C35.0082917,40 37.9991406,37.0091511 37.9991406,33.3332986 C37.9991406,29.6574461 35.0082917,26.6665972 31.3324392,26.6665972 Z M31.3324392,36.6666493 C30.3607675,36.6666493 28.417424,35.0849744 26.8424158,33.3332986 C28.417424,31.5816228 30.3607675,29.9999479 31.3324392,29.9999479 C33.1707821,29.9999479 34.6657899,31.4949557 34.6657899,33.3332986 C34.6657899,35.1716415 33.1707821,36.6666493 31.3324392,36.6666493 Z" id="path-2"></path>
        <filter x="-10.0%" y="-6.2%" width="120.0%" height="117.5%" filterUnits="objectBoundingBox" id="filter-3">
            <feOffset dx="0" dy="1" in="SourceAlpha" result="shadowOffsetOuter1"></feOffset>
            <feGaussianBlur stdDeviation="1" in="shadowOffsetOuter1" result="shadowBlurOuter1"></feGaussianBlur>
            <feColorMatrix values="0 0 0 0 0   0 0 0 0 0   0 0 0 0 0  0 0 0 0.2 0" type="matrix" in="shadowBlurOuter1"></feColorMatrix>
        </filter>
    </defs>
    <g id="Page-1" stroke="none" stroke-width="1" fill="none" fill-rule="evenodd">
        <g id="9P-024---horoscope" transform="translate(-125.000000, -551.000000)">
            <g id="item" transform="translate(108.000000, 536.000000)">
                <g id="Shape" transform="translate(16.000000, 16.000000)">
                    <use fill="black" fill-opacity="1" filter="url(#filter-3)" xlink:href="#path-2"></use>
                    <use fill="url(#linearGradient-1)" fill-rule="evenodd" xlink:href="#path-2"></use>
                </g>
            </g>
        </g>
    </g>
</svg>