<?xml version="1.0" encoding="UTF-8"?>
<svg width="24px" height="24px" viewBox="0 0 24 24" version="1.1" xmlns="http://www.w3.org/2000/svg" xmlns:xlink="http://www.w3.org/1999/xlink">
    <title>icons/settings/clock</title>
    <defs>
        <filter id="filter-1">
            <feColorMatrix in="SourceGraphic" type="matrix" values="0 0 0 0 0.447059 0 0 0 0 0.305882 0 0 0 0 0.905882 0 0 0 1.000000 0"></feColorMatrix>
        </filter>
        <path d="M16,11 L13,11 L13,8 C13,7.447 12.552,7 12,7 C11.448,7 11,7.447 11,8 L11,12 C11,12.553 11.448,13 12,13 L16,13 C16.553,13 17,12.553 17,12 C17,11.447 16.553,11 16,11 M12,20 C7.589,20 4,16.411 4,12 C4,7.589 7.589,4 12,4 C16.411,4 20,7.589 20,12 C20,16.411 16.411,20 12,20 M12,2 C6.486,2 2,6.486 2,12 C2,17.514 6.486,22 12,22 C17.514,22 22,17.514 22,12 C22,6.486 17.514,2 12,2" id="path-2"></path>
    </defs>
    <g id="Page-1" stroke="none" stroke-width="1" fill="none" fill-rule="evenodd">
        <g id="9P-024---settings---preferences" transform="translate(-20.000000, -388.000000)">
            <g id="settings-menu" transform="translate(20.000000, 148.000000)">
                <g id="list" transform="translate(0.000000, 224.000000)">
                    <g id="icons/settings/time" transform="translate(0.000000, 16.000000)" filter="url(#filter-1)">
                        <g>
                            <mask id="mask-3" fill="white">
                                <use xlink:href="#path-2"></use>
                            </mask>
                            <use id="🎨-Icon-Сolor" fill="#8F9BB3" xlink:href="#path-2"></use>
                        </g>
                    </g>
                </g>
            </g>
        </g>
    </g>
</svg>