<?xml version="1.0" encoding="UTF-8"?>
<svg width="24px" height="24px" viewBox="0 0 24 24" version="1.1" xmlns="http://www.w3.org/2000/svg" xmlns:xlink="http://www.w3.org/1999/xlink">
    <title>icons/settings/contact</title>
    <defs>
        <filter id="filter-1">
            <feColorMatrix in="SourceGraphic" type="matrix" values="0 0 0 0 0.447059 0 0 0 0 0.305882 0 0 0 0 0.905882 0 0 0 1.000000 0"></feColorMatrix>
        </filter>
        <path d="M19,18 L5,18 C4.449,18 4,17.552 4,17 L4,7.25 L11.4,12.8 C11.578,12.934 11.789,13 12,13 C12.211,13 12.422,12.934 12.6,12.8 L20,7.25 L20,17 C20,17.552 19.551,18 19,18 L19,18 Z M18.333,6 L12,10.75 L5.667,6 L18.333,6 Z M19,4 L5,4 C3.346,4 2,5.346 2,7 L2,17 C2,18.654 3.346,20 5,20 L19,20 C20.654,20 22,18.654 22,17 L22,7 C22,5.346 20.654,4 19,4 L19,4 Z" id="path-2"></path>
    </defs>
    <g id="Page-1" stroke="none" stroke-width="1" fill="none" fill-rule="evenodd">
        <g id="9P-024---settings" transform="translate(-20.000000, -482.000000)">
            <g id="settings-menu" transform="translate(20.000000, 184.000000)">
                <g id="list" transform="translate(0.000000, 281.000000)">
                    <g id="icons/settings/user" transform="translate(0.000000, 17.000000)" filter="url(#filter-1)">
                        <g>
                            <mask id="mask-3" fill="white">
                                <use xlink:href="#path-2"></use>
                            </mask>
                            <use id="🎨-Icon-Сolor" fill="#8F9BB3" xlink:href="#path-2"></use>
                        </g>
                    </g>
                </g>
            </g>
        </g>
    </g>
</svg>