<?xml version="1.0" encoding="UTF-8"?>
<svg width="24px" height="24px" viewBox="0 0 24 24" version="1.1" xmlns="http://www.w3.org/2000/svg" xmlns:xlink="http://www.w3.org/1999/xlink">
    <title>icons/settings/display mode</title>
    <defs>
        <filter id="filter-1">
            <feColorMatrix in="SourceGraphic" type="matrix" values="0 0 0 0 0.447059 0 0 0 0 0.305882 0 0 0 0 0.905882 0 0 0 1.000000 0"></feColorMatrix>
        </filter>
    </defs>
    <g id="Page-1" stroke="none" stroke-width="1" fill="none" fill-rule="evenodd">
        <g id="9P-024---settings---preferences" transform="translate(-20.000000, -332.000000)">
            <g id="settings-menu" transform="translate(20.000000, 148.000000)">
                <g id="list" transform="translate(0.000000, 168.000000)">
                    <g id="icons/settings/display-mode" transform="translate(0.000000, 16.000000)" filter="url(#filter-1)">
                        <g>
                            <path d="M19.168,6.4668 L17.73,7.8568 C17.536,8.0438 17.285,8.1378 17.035,8.1378 C16.773,8.1378 16.512,8.0348 16.316,7.8318 C15.933,7.4358 15.943,6.8018 16.341,6.4188 L17.779,5.0298 C18.176,4.6468 18.812,4.6568 19.192,5.0538 C19.576,5.4498 19.565,6.0838 19.168,6.4668 M7.684,7.8318 C7.488,8.0348 7.227,8.1378 6.965,8.1378 C6.715,8.1378 6.464,8.0448 6.27,7.8578 L4.831,6.4678 C4.434,6.0838 4.423,5.4498 4.807,5.0538 C5.191,4.6568 5.823,4.6448 6.221,5.0288 L7.66,6.4178 C8.057,6.8018 8.068,7.4358 7.684,7.8318 M6,11.9998 C6,12.5528 5.552,12.9998 5,12.9998 L3,12.9998 C2.448,12.9998 2,12.5528 2,11.9998 C2,11.4468 2.448,10.9998 3,10.9998 L5,10.9998 C5.552,10.9998 6,11.4468 6,11.9998 M22,11.9998 C22,12.5528 21.553,12.9998 21,12.9998 L19,12.9998 C18.447,12.9998 18,12.5528 18,11.9998 C18,11.4468 18.447,10.9998 19,10.9998 L21,10.9998 C21.553,10.9998 22,11.4468 22,11.9998 M11,4.9998 L11,2.9998 C11,2.4468 11.448,1.9998 12,1.9998 C12.552,1.9998 13,2.4468 13,2.9998 L13,4.9998 C13,5.5528 12.552,5.9998 12,5.9998 C11.448,5.9998 11,5.5528 11,4.9998 M13.501,14.5928 C13.191,14.7718 13,15.1028 13,15.4598 L13,19.9998 L11,19.9998 L11,15.4598 C11,15.1028 10.809,14.7718 10.499,14.5928 C9.574,14.0618 9,13.0678 9,11.9998 C9,10.3458 10.346,8.9998 12,8.9998 C13.654,8.9998 15,10.3458 15,11.9998 C15,13.0678 14.426,14.0618 13.501,14.5928 M12,6.9998 C9.243,6.9998 7,9.2428 7,11.9998 C7,13.5788 7.753,15.0618 9,15.9958 L9,19.9998 C9,21.1028 9.897,21.9998 11,21.9998 L13,21.9998 C14.103,21.9998 15,21.1028 15,19.9998 L15,15.9958 C16.246,15.0618 17,13.5788 17,11.9998 C17,9.2428 14.757,6.9998 12,6.9998" id="🎨-Icon-Сolor" fill="#8F9BB3"></path>
                        </g>
                    </g>
                </g>
            </g>
        </g>
    </g>
</svg>