<?xml version="1.0" encoding="UTF-8"?>
<svg width="24px" height="24px" viewBox="0 0 24 24" version="1.1" xmlns="http://www.w3.org/2000/svg" xmlns:xlink="http://www.w3.org/1999/xlink">
    <title>icons/cup/empty</title>
    <g id="Page-1" stroke="none" stroke-width="1" fill="none" fill-rule="evenodd">
        <g id="9P-024---drink-level" transform="translate(-20.000000, -622.000000)">
            <g id="Group" transform="translate(20.000000, 561.000000)">
                <g id="icon/cup-empty" transform="translate(0.000000, 61.000000)">
                    <rect id="bound" fill="#FFFFFF" opacity="0" x="0" y="0" width="24" height="24"></rect>
                    <path d="M17.3099219,5.1697312 L16.5744141,5.1697312 L16.5744141,4 L2,4 L2,14.3214647 C2,17.4526295 4.55433594,20 7.6940625,20 L10.8804297,20 C13.9520703,20 16.4630078,17.5618231 16.5704688,14.5241917 L17.31,14.5241917 C19.8960938,14.5241917 22.0000781,12.4259447 22.0000781,9.84686404 C22.0000781,7.2677834 19.8960156,5.1697312 17.3099219,5.1697312 Z M15.4025391,14.3215427 C15.4025391,16.8082587 13.3739063,18.8313206 10.8803906,18.8313206 L7.69402344,18.8313206 C5.20054688,18.8313206 3.17195313,16.8082587 3.17195313,14.3215427 L3.17195313,5.1687573 L15.4025391,5.1687573 L15.4025391,14.3215427 L15.4025391,14.3215427 Z M16.5744141,8.6759252 L17.3099219,8.6759252 C17.9574219,8.6759252 18.4841797,9.20128555 18.4841797,9.84701987 C18.4841797,10.4927542 17.9573828,11.0180756 17.3099219,11.0180756 L16.5744141,11.0180756 L16.5744141,8.6759252 Z M17.3099219,13.3555512 L16.5744141,13.3555512 L16.5744141,12.1868329 L17.3099219,12.1868329 C18.6036328,12.1868329 19.6561328,11.1372419 19.6561328,9.84701987 C19.6561328,8.55679782 18.6036328,7.5071679 17.3099219,7.5071679 L16.5744141,7.5071679 L16.5744141,6.33844955 L17.3099219,6.33844955 C19.2498047,6.33844955 20.8280469,7.91234905 20.8280469,9.84698091 C20.8280469,11.7816128 19.2498438,13.3555512 17.3099219,13.3555512 Z" id="cup" fill="#8F9BB3"></path>
                </g>
            </g>
        </g>
    </g>
</svg>