<?xml version="1.0" encoding="UTF-8"?>
<svg width="24px" height="24px" viewBox="0 0 24 24" version="1.1" xmlns="http://www.w3.org/2000/svg" xmlns:xlink="http://www.w3.org/1999/xlink">
    <title>Shape</title>
    <g id="Page-1" stroke="none" stroke-width="1" fill="none" fill-rule="evenodd">
        <g id="9P-024---sound-expanded" transform="translate(-29.000000, -607.000000)" fill="#FFFFFF">
            <g id="info-bar" transform="translate(0.000000, 272.000000)">
                <g id="symbol" transform="translate(20.000000, 326.000000)">
                    <path d="M21.0000235,29.9411765 C21.3849242,29.9411765 21.6978929,30.249273 21.7057545,30.6322909 L21.7059059,30.6470588 L21.7059059,32.2941176 C21.7059059,32.6839529 21.3898588,33 21.0000235,33 C20.6151229,33 20.3021542,32.6919035 20.2942926,32.3088856 L20.2941412,32.2941176 L20.2941412,30.6470588 C20.2941412,30.2572235 20.6101882,29.9411765 21.0000235,29.9411765 Z M15.8253882,29.2605647 C16.0185647,28.9219294 16.4496235,28.8040471 16.7882588,28.9971294 C17.122318,29.187649 17.2416417,29.6097567 17.0593554,29.9462217 L17.0516941,29.96 L16.1123059,31.6070588 C15.9191765,31.9456471 15.4881176,32.0636235 15.1494353,31.8704941 C14.8153762,31.6799746 14.6960982,31.2578669 14.8783406,30.9214018 L14.886,30.9076235 L15.8253882,29.2605647 Z M25.2117882,28.9970824 C25.5457545,28.8066556 25.9698923,28.9187544 26.1666996,29.2469556 L26.1746588,29.2605647 L27.1140471,30.9076235 C27.3071765,31.2462588 27.1892471,31.6773647 26.8506118,31.8704941 C26.5164598,32.0610137 26.0924569,31.9487788 25.8956984,31.6206191 L25.8877412,31.6070118 L24.9483529,29.9599529 C24.7552235,29.6213176 24.8731529,29.1902118 25.2117882,28.9970824 Z M21.0000235,14.7932706 C26.0403529,14.7932706 30.6585647,17.8946824 32.8398824,20.5522824 C33.0534353,20.8125647 33.0534353,21.1874353 32.8398824,21.4477647 C30.7532471,23.9899765 26.1547059,27.2067765 21.0000235,27.2067765 C16.0222353,27.2067765 11.3932,24.1696 9.16016471,21.4477176 C8.94661176,21.1874353 8.94661176,20.8125647 9.16016471,20.5522824 C11.3232235,17.9157647 15.9416235,14.7932706 21.0000235,14.7932706 Z M20.9999765,16.2049882 C18.3559765,16.2049882 16.2049647,18.3560471 16.2049647,21 C16.2049647,23.6438118 18.3559294,25.7950118 20.9999765,25.7950118 C23.6439765,25.7950118 25.7949882,23.6439529 25.7949882,21 C25.7949882,18.3563294 23.6442118,16.2049882 20.9999765,16.2049882 Z M25.9420941,17.2496471 C27.6295294,19.4679529 27.6289176,22.5338353 25.9412941,24.7513882 C27.8775012,23.9278438 29.4127228,22.7734747 30.4171916,21.8833526 L30.499666,21.8098001 C30.5538261,21.76119 30.606337,21.7134465 30.6571763,21.6666715 L30.732179,21.5972484 C30.7444696,21.5858032 30.756655,21.5744217 30.7687349,21.5631056 L30.8399454,21.4960053 L30.8399454,21.4960053 L30.9086069,21.4305493 L30.9086069,21.4305493 L30.9747028,21.3668141 L30.9747028,21.3668141 L31.0382163,21.3048763 L31.0382163,21.3048763 L31.0991307,21.2448122 L31.0991307,21.2448122 L31.1574295,21.1866985 C31.166927,21.1771797 31.1763149,21.1677453 31.1855927,21.158397 L31.2399366,21.1033524 L31.2399366,21.1033524 L31.291623,21.0504494 L31.291623,21.0504494 L31.3406353,20.9997647 L31.3406353,20.9997647 C29.8860941,19.4854118 27.9866588,18.1162353 25.9420941,17.2496471 Z M16.0587529,17.2486118 C14.2570047,18.0149341 12.8024833,19.067792 11.7997551,19.9275781 L11.711169,20.004045 C11.6820448,20.0293534 11.6533259,20.054477 11.6250151,20.0794031 L11.5413101,20.1535758 C11.4175975,20.2639078 11.3022061,20.3699809 11.1953893,20.4706327 L11.1254512,20.536918 C11.1140075,20.5478274 11.1026704,20.5586668 11.0914401,20.5694344 L11.0253443,20.6331667 L11.0253443,20.6331667 L10.9618308,20.6951013 L10.9618308,20.6951013 L10.9009163,20.7551618 L10.9009163,20.7551618 L10.8426176,20.8132715 L10.8426176,20.8132715 L10.7869512,20.8693539 L10.7869512,20.8693539 L10.708424,20.9495089 L10.708424,20.9495089 L10.6594118,21.0001882 L10.6594118,21.0001882 C12.1139059,22.5146353 14.0132941,23.8837647 16.0579529,24.7503529 C14.3704706,22.5320471 14.3711294,19.4661176 16.0587529,17.2486118 Z M21.0000235,18.6 C22.3233647,18.6 23.4000235,19.6766118 23.4000235,21 C23.4000235,22.3233882 22.3233647,23.4 21.0000235,23.4 C19.6766353,23.4 18.6000235,22.3233882 18.6000235,21 C18.6000235,19.6766118 19.6766353,18.6 21.0000235,18.6 Z M21.0000235,20.0117647 C20.4550824,20.0117647 20.0117882,20.4550588 20.0117882,21 C20.0117882,21.5449412 20.4550824,21.9882353 21.0000235,21.9882353 C21.5449176,21.9882353 21.9882588,21.5449412 21.9882588,21 C21.9882588,20.4550588 21.5449176,20.0117647 21.0000235,20.0117647 Z M25.8877412,10.3929882 C26.0809176,10.0542588 26.5118824,9.93637647 26.8506118,10.1295059 C27.1847173,10.3200719 27.3039501,10.7421344 27.1217065,11.0785982 L27.1140471,11.0923765 L26.1746588,12.7394353 C25.9814353,13.0782588 25.5502353,13.1959529 25.2117882,13.0029176 C24.8777291,12.8123517 24.7584511,12.3902434 24.9406936,12.0538235 L24.9483529,12.0400471 L25.8877412,10.3929882 Z M15.1494353,10.1295059 C15.483448,9.93898633 15.9075406,10.0511754 16.1043467,10.3793339 L16.1123059,10.3929412 L17.0516941,12.04 C17.2448235,12.3786353 17.1268941,12.8097412 16.7882588,13.0028706 C16.4541533,13.1933901 16.030151,13.0812011 15.8333473,12.7530426 L15.8253882,12.7394353 L14.886,11.0923765 C14.6928706,10.7537412 14.8108,10.3226353 15.1494353,10.1295059 Z M21.0000235,9 C21.3849242,9 21.6978929,9.30809651 21.7057545,9.69111444 L21.7059059,9.70588235 L21.7059059,11.3529412 C21.7059059,11.7427765 21.3898588,12.0588235 21.0000235,12.0588235 C20.6151229,12.0588235 20.3021542,11.750727 20.2942926,11.3677091 L20.2941412,11.3529412 L20.2941412,9.70588235 C20.2941412,9.31604706 20.6101882,9 21.0000235,9 Z" id="Shape"></path>
                </g>
            </g>
        </g>
    </g>
</svg>