<?xml version="1.0" encoding="UTF-8"?>
<svg width="24px" height="24px" viewBox="0 0 24 24" version="1.1" xmlns="http://www.w3.org/2000/svg" xmlns:xlink="http://www.w3.org/1999/xlink">
    <title>icons/settings/horoscope symbol</title>
    <defs>
        <filter id="filter-1">
            <feColorMatrix in="SourceGraphic" type="matrix" values="0 0 0 0 0.447059 0 0 0 0 0.305882 0 0 0 0 0.905882 0 0 0 1.000000 0"></feColorMatrix>
        </filter>
        <path d="M17.8091,13.395 C19.5141,11.978 20.6991,9.953 20.9921,7.624 C21.0611,7.077 20.6731,6.577 20.1241,6.508 C19.5841,6.434 19.0761,6.827 19.0081,7.375 C18.5691,10.867 15.5561,13.5 12.0001,13.5 C8.4441,13.5 5.4311,10.867 4.9921,7.375 C4.9241,6.827 4.4141,6.438 3.8751,6.508 C3.3271,6.577 2.9391,7.077 3.0081,7.624 C3.3011,9.953 4.4861,11.978 6.1911,13.395 L3.8791,15.707 C3.4901,16.096 3.4901,16.732 3.8791,17.121 C4.2671,17.51 4.9041,17.51 5.2931,17.121 L7.8961,14.518 C8.8501,15 9.8971,15.318 11.0001,15.439 L11.0001,19 C11.0001,19.55 11.4501,20 12.0001,20 C12.5501,20 13.0001,19.55 13.0001,19 L13.0001,15.439 C14.1021,15.318 15.1501,15 16.1031,14.518 L18.7071,17.121 C19.0961,17.51 19.7321,17.51 20.1211,17.121 C20.5101,16.732 20.5101,16.096 20.1211,15.707 L17.8091,13.395 Z" id="path-2"></path>
    </defs>
    <g id="Page-1" stroke="none" stroke-width="1" fill="none" fill-rule="evenodd">
        <g id="9P-024---settings---preferences" transform="translate(-20.000000, -164.000000)">
            <g id="settings-menu" transform="translate(20.000000, 148.000000)">
                <g id="icons/settings/user" transform="translate(0.000000, 16.000000)" filter="url(#filter-1)">
                    <g>
                        <mask id="mask-3" fill="white">
                            <use xlink:href="#path-2"></use>
                        </mask>
                        <use id="🎨-Icon-Сolor" fill="#8F9BB3" xlink:href="#path-2"></use>
                    </g>
                </g>
            </g>
        </g>
    </g>
</svg>