<?xml version="1.0" encoding="UTF-8"?>
<svg width="123px" height="292px" viewBox="0 0 123 292" version="1.1" xmlns="http://www.w3.org/2000/svg" xmlns:xlink="http://www.w3.org/1999/xlink">
    <title>Path</title>
    <g id="Page-1" stroke="none" stroke-width="1" fill="none" fill-rule="evenodd">
        <g id="9P-024---drink-level" transform="translate(-126.000000, -264.000000)" fill="#C5CEE0">
            <g id="body" transform="translate(126.000000, 264.000000)">
                <path d="M62.9156189,166.941166 C62.4863797,172.007752 65.9174692,198.825274 67.6880809,209.340562 C68.5310276,214.322233 70.8424241,222.438677 70.0107732,226.748105 C68.8233056,232.754415 68.4801966,240.526954 69.1339392,245.052915 C69.5462347,247.801325 70.8438361,260.477696 68.9870942,265.114046 C68.0156581,267.545441 66.2351627,280.005279 66.2351627,280.005279 C61.5968379,291.743341 64.2146322,291.16592 64.2146322,291.16592 C65.6506067,292.932149 68.1102602,291.304614 68.1102602,291.304614 C69.9839457,292.501914 71.2815471,291.02015 71.2815471,291.02015 C72.8897821,292.354728 74.7648796,290.855981 74.7648796,290.855981 C76.7854101,291.90751 78.6590956,289.968621 78.6590956,289.968621 C79.8197358,290.554533 80.1035419,289.814359 80.1035419,289.814359 C83.5854625,289.59075 78.1606698,278.421617 78.1606698,278.421617 C76.8616565,268.390344 79.4497994,262.807193 79.4497994,262.807193 C87.9272733,237.608713 88.3579245,230.92167 84.969194,221.42536 C84.0147016,218.684025 83.7732546,217.598531 84.2123776,216.408308 C85.2275847,213.661312 84.4877119,202.612476 85.7260105,198.225209 C88.1150655,189.763445 90.4716451,168.304049 91.7000598,158.291174 C93.350654,144.803866 85.8530879,126.719835 85.8530879,126.719835 C84.2109656,119.360549 86.6183762,93.1402607 86.6183762,93.1402607 C89.9802792,98.3837522 89.8517898,107.63947 89.8517898,107.63947 C89.3180647,117.346652 97.6755212,132.18269 97.6755212,132.18269 C101.691167,138.313542 103.211859,144.130209 103.211859,144.561859 C103.211859,146.328088 102.826391,150.60355 102.826391,150.60355 L102.980296,154.327066 C103.049483,155.275282 103.581796,158.540257 103.495666,160.118258 C102.868751,169.829686 104.407799,168.002601 104.407799,168.002601 C105.706812,168.002601 107.134315,160.187605 107.134315,160.187605 C107.134315,162.202918 106.642949,168.236117 107.727343,170.511835 C109.024944,173.22628 109.979437,170.046219 109.99638,169.407942 C110.339489,157.042926 111.080774,160.282427 111.080774,160.282427 C111.802291,170.3137 112.689009,172.579511 114.278888,171.795464 C115.4833,171.219459 114.381962,159.75737 114.381962,159.75737 C116.444852,166.566125 118.009316,167.650205 118.009316,167.650205 C121.413578,170.046219 119.308329,163.428522 118.835319,162.118003 C116.316362,155.154986 116.238704,152.741989 116.238704,152.741989 C119.385987,158.998798 121.758099,158.766697 121.758099,158.766697 C124.827724,157.784515 119.075354,148.925067 115.704979,144.68074 C113.985198,142.518242 111.766992,139.622646 111.123133,137.90312 C110.074039,134.990541 109.281923,125.627264 109.281923,125.627264 C108.964229,114.578428 106.239125,109.779324 106.239125,109.779324 C101.579621,102.303987 100.702787,88.359555 100.702787,88.359555 L100.496639,64.8169148 C98.8629888,48.7581028 87.0574992,48.6420525 87.0574992,48.6420525 C75.1249322,46.8616713 73.4644543,42.998046 73.4644543,42.998046 C70.9370262,39.3523687 72.3814725,32.3638771 72.3814725,32.3638771 C74.4782494,30.6542583 75.2873088,26.1155599 75.2873088,26.1155599 C78.7692293,23.4393271 78.5983809,19.5233376 76.9901459,19.5657951 C75.6996044,19.599761 75.9918824,18.5284187 75.9918824,18.5284187 C78.1691417,0.900097335 62.5555663,0 62.5555663,0 L60.1721592,0 C60.1721592,0 44.5515239,0.900097335 46.7259593,18.524173 C46.7259593,18.524173 47.0182373,19.5969305 45.7164,19.5615493 C44.1124009,19.5190919 43.962732,23.4350814 47.4319448,26.1113142 C47.4319448,26.1113142 48.2395922,30.6485973 50.3377811,32.3596314 C50.3377811,32.3596314 51.7822275,39.348123 49.2547994,42.9938002 C49.2547994,42.9938002 47.5999693,46.8574256 35.6617544,48.6378068 C35.6617544,48.6378068 23.8364973,48.7538571 22.2282623,64.8126691 L22.0051709,88.3553093 C22.0051709,88.3553093 21.1452805,102.299742 16.4674206,109.775078 C16.4674206,109.775078 13.7550243,114.575598 13.4415667,125.623019 C13.4415667,125.623019 12.646627,134.986295 11.6017685,137.898874 C10.9649695,139.609908 8.74817505,142.505505 7.01427466,144.676494 C3.61424847,148.91233 -2.09999821,157.75338 0.956919028,158.762451 C0.956919028,158.762451 3.34173806,158.994552 6.4763137,152.737743 C6.4763137,152.737743 6.41136303,155.133757 3.89664267,162.113757 C3.40245282,163.407293 1.30002798,170.02499 4.70570206,167.645959 C4.70570206,167.645959 6.28287367,166.560464 8.33305558,159.753124 C8.33305558,159.753124 7.23313016,171.215213 8.45730903,171.791219 C10.0570722,172.576681 10.9296703,170.309455 11.6511874,160.278181 C11.6511874,160.278181 12.3910603,157.03868 12.7341692,169.403696 C12.7511129,170.041973 13.6844257,173.222034 14.9876749,170.507589 C16.0876004,168.231872 15.5934105,162.208579 15.5934105,160.18336 C15.5934105,160.18336 17.0039695,167.998356 18.3227505,167.998356 C18.3227505,167.998356 19.8745066,169.82544 19.2377077,160.114013 C19.1346338,158.52752 19.6895384,155.271036 19.758725,154.32282 L19.9083939,150.599304 C19.9083939,150.599304 19.5215138,146.333749 19.5215138,144.557613 C19.5215138,144.117471 21.0436186,138.309296 25.0578522,132.178444 C25.0578522,132.178444 33.4068367,117.33533 32.8688758,107.635224 C32.8688758,107.635224 32.7530942,98.3795065 36.1149971,93.136015 C36.1149971,93.136015 38.5012281,119.354888 36.8845213,126.71559 C36.8845213,126.71559 29.3742475,144.799621 31.0304895,158.286928 C32.2504325,168.326693 34.6027762,189.757784 36.997479,198.220964 C38.2484853,202.599739 37.5086125,213.645745 38.5111119,216.404062 C38.9629427,217.602776 38.7257315,218.706669 37.7542955,221.421114 C34.3839207,230.917424 34.8131599,237.605883 43.2906338,262.802947 C43.2906338,262.802947 45.8999562,268.386098 44.5811753,278.417372 C44.5811753,278.417372 39.1648545,289.586504 42.6340673,289.810113 C42.6340673,289.810113 42.9051657,290.550288 44.0785136,289.964375 C44.0785136,289.964375 45.9521992,291.903264 47.9769656,290.851735 C47.9769656,290.851735 49.8520631,292.351897 51.4546502,291.015904 C51.4546502,291.015904 52.7395438,292.497668 54.6132293,291.300369 C54.6132293,291.300369 57.0728828,292.963284 58.5342728,291.161674 C58.5342728,291.161674 61.1308875,291.739095 56.5080944,280.001034 C56.5080944,280.001034 54.7374828,267.556763 53.7618108,265.109801 C51.900833,260.474865 53.215378,247.771605 53.6121419,245.048669 C54.2517647,240.497233 53.9086558,232.743093 52.7395438,226.743859 C51.8838894,222.444338 54.2009338,214.326479 55.0565882,209.336316 C56.8144921,198.830935 60.2597014,172.011997 59.8290502,166.93692 L61.252317,167.437918 C62.2717601,167.440748 62.9156189,166.941166 62.9156189,166.941166 Z" id="Path"></path>
            </g>
        </g>
    </g>
</svg>