<?xml version="1.0" encoding="UTF-8"?>
<svg width="24px" height="24px" viewBox="0 0 24 24" version="1.1" xmlns="http://www.w3.org/2000/svg" xmlns:xlink="http://www.w3.org/1999/xlink">
    <title>Shape</title>
    <g id="Page-1" stroke="none" stroke-width="1" fill="none" fill-rule="evenodd">
        <g id="9P-024---sound-expanded" transform="translate(-29.000000, -459.000000)" fill="#FFFFFF">
            <g id="info-bar" transform="translate(0.000000, 272.000000)">
                <g id="symbol" transform="translate(20.000000, 178.000000)">
                    <path d="M23.2355346,31.468122 C23.6613462,31.468122 24.0063924,31.8110133 24.0063924,32.234061 C24.0063924,32.6521317 23.6693712,32.9919209 23.2505277,32.9998581 L23.2355346,33 L18.7644654,33 C18.3387009,33 17.9936076,32.6571087 17.9936076,32.234061 C17.9936076,31.8159903 18.3306288,31.4762011 18.7494723,31.468264 L18.7644654,31.468122 L23.2355346,31.468122 Z M21,13.7234155 C25.094651,13.7234155 28.4258509,17.0336407 28.4258509,21.1021643 C28.4258509,23.7817128 26.9387203,26.2575992 24.591713,27.5604019 L24.520329,27.5995207 L24.520329,30.038338 C24.520329,30.4566403 24.1833078,30.7962033 23.7644643,30.804277 L23.7494712,30.804277 L18.2505288,30.804277 C17.8297733,30.804277 17.487802,30.4694062 17.4798139,30.0532354 L17.479671,30.038338 L17.479671,27.58063 C15.0911914,26.3214245 13.573866,23.8310446 13.573866,21.1021643 C13.573866,17.0333594 16.905349,13.7234155 21,13.7234155 Z M21.0000472,15.2553403 C17.7554154,15.2553403 15.1156758,17.8782361 15.1156758,21.1021643 C15.1156758,23.3967 16.4690643,25.4772978 18.5635423,26.4023309 C18.8367744,26.5229106 19.0148702,26.7897124 19.0212561,27.0857028 L19.0214337,27.102176 L19.0214337,29.272399 L22.9785663,29.272399 L22.9785663,27.1277229 C22.9785663,26.8287067 23.1538256,26.5570655 23.4269753,26.4319559 C25.5271145,25.4706884 26.8841826,23.3785593 26.8841826,21.1021643 C26.8841826,17.8782361 24.2446789,15.2553403 21.0000472,15.2553403 Z M12.2119859,20.1574905 L12.2119859,21.6894154 L9,21.6894154 L9,20.1574905 L12.2119859,20.1574905 Z M33,20.1574905 L33,21.6894154 L29.7880141,21.6894154 L29.7880141,20.1574905 L33,20.1574905 Z M28.9376201,11.9539372 L30.0216334,13.043289 L27.7346381,15.2901263 L26.6506248,14.2007746 L28.9376201,11.9539372 Z M13.062419,11.9532756 L15.3494143,14.200113 L14.2654009,15.2894648 L11.9784056,13.0426274 L13.062419,11.9532756 Z M21.7709049,9 L21.7709049,12.1914906 L20.2291423,12.1914906 L20.2291423,9 L21.7709049,9 Z" id="Shape"></path>
                </g>
            </g>
        </g>
    </g>
</svg>