<?xml version="1.0" encoding="UTF-8"?>
<svg width="24px" height="24px" viewBox="0 0 24 24" version="1.1" xmlns="http://www.w3.org/2000/svg" xmlns:xlink="http://www.w3.org/1999/xlink">
    <title>icons/settings/mode</title>
    <defs>
        <filter id="filter-1">
            <feColorMatrix in="SourceGraphic" type="matrix" values="0 0 0 0 0.447059 0 0 0 0 0.305882 0 0 0 0 0.905882 0 0 0 1.000000 0"></feColorMatrix>
        </filter>
        <path d="M7.44093362,4.91804306 C6.94093362,5.27204306 6.48193362,5.68204306 6.06593362,6.14604306 C3.21693362,9.31704306 3.30993362,14.3910431 6.27293362,17.4560431 C7.83893362,19.0770431 9.94293362,19.9810431 12.1969336,20.0000431 C12.2219336,20.0010431 12.2479336,20.0010431 12.2739336,20.0010431 C14.4989336,20.0010431 16.5879336,19.1380431 18.1639336,17.5650431 C18.4919336,17.2380431 18.7899336,16.8870431 19.0569336,16.5130431 C15.9109336,16.9050431 12.6859336,15.8510431 10.3949336,13.5650431 C8.10493362,11.2790431 7.04493362,8.06104306 7.44093362,4.91804306 M12.2739336,22.0010431 C12.2419336,22.0010431 12.2109336,22.0010431 12.1789336,22.0000431 C9.38493362,21.9760431 6.77593362,20.8560431 4.83493362,18.8470431 C1.15793362,15.0420431 1.04293362,8.74504306 4.57693362,4.81004306 C5.67793362,3.58304306 7.02193362,2.66004306 8.57093362,2.06704306 C8.93593362,1.92504306 9.35093362,2.01304306 9.62993362,2.28904306 C9.90893362,2.56404306 10.0019336,2.97704306 9.86693362,3.34504306 C8.74893362,6.40004306 9.51093362,9.85604306 11.8079336,12.1490431 C14.1059336,14.4420431 17.5709336,15.2030431 20.6359336,14.0870431 C21.0039336,13.9510431 21.4179336,14.0470431 21.6919336,14.3250431 C21.9659336,14.6060431 22.0529336,15.0200431 21.9119336,15.3850431 C21.3879336,16.7480431 20.6019336,17.9580431 19.5759336,18.9810431 C17.6229336,20.9310431 15.0329336,22.0010431 12.2739336,22.0010431" id="path-2"></path>
    </defs>
    <g id="Page-1" stroke="none" stroke-width="1" fill="none" fill-rule="evenodd">
        <g id="9P-024---settings---preferences" transform="translate(-20.000000, -276.000000)">
            <g id="settings-menu" transform="translate(20.000000, 148.000000)">
                <g id="list" transform="translate(0.000000, 112.000000)">
                    <g id="icons/settings/mode" transform="translate(0.000000, 16.000000)" filter="url(#filter-1)">
                        <g>
                            <mask id="mask-3" fill="white">
                                <use xlink:href="#path-2"></use>
                            </mask>
                            <use id="🎨-Icon-Сolor" fill="#8F9BB3" xlink:href="#path-2"></use>
                        </g>
                    </g>
                </g>
            </g>
        </g>
    </g>
</svg>