<?xml version="1.0" encoding="UTF-8"?>
<svg width="18px" height="24px" viewBox="0 0 18 24" version="1.1" xmlns="http://www.w3.org/2000/svg" xmlns:xlink="http://www.w3.org/1999/xlink">
    <title>icons/music/pause</title>
    <g id="Page-1" stroke="none" stroke-width="1" fill="none" fill-rule="evenodd">
        <g id="9P-024---sound-mode" transform="translate(-179.000000, -752.000000)" fill="#FFFFFF">
            <g id="bottom-player" transform="translate(0.000000, 604.000000)">
                <g id="player" transform="translate(20.000000, 96.000000)">
                    <g id="button-play" transform="translate(140.000000, 36.000000)">
                        <g id="icons/music/pause-2" transform="translate(19.000000, 16.000000)">
                            <path d="M4,0 C5.1045695,-2.02906125e-16 6,0.8954305 6,2 L6,22 C6,23.1045695 5.1045695,24 4,24 L2,24 C0.8954305,24 1.3527075e-16,23.1045695 0,22 L0,2 C-1.3527075e-16,0.8954305 0.8954305,2.02906125e-16 2,0 L4,0 Z M16,0 C17.1045695,-2.02906125e-16 18,0.8954305 18,2 L18,22 C18,23.1045695 17.1045695,24 16,24 L14,24 C12.8954305,24 12,23.1045695 12,22 L12,2 C12,0.8954305 12.8954305,2.02906125e-16 14,0 L16,0 Z" id="icons/music/pause"></path>
                        </g>
                    </g>
                </g>
            </g>
        </g>
    </g>
</svg>