<?xml version="1.0" encoding="UTF-8"?>
<svg width="38px" height="44px" viewBox="0 0 38 44" version="1.1" xmlns="http://www.w3.org/2000/svg" xmlns:xlink="http://www.w3.org/1999/xlink">
    <title>Path</title>
    <defs>
        <linearGradient x1="50%" y1="98.818735%" x2="50%" y2="0%" id="linearGradient-1">
            <stop stop-color="#7044E9" offset="0%"></stop>
            <stop stop-color="#8281DE" offset="100%"></stop>
        </linearGradient>
        <path d="M5.66661519,21.6672329 L13.2197152,21.6672329 C13.0530537,25.257122 12.3505754,28.8261784 11.1072805,32.2460728 L9.1006758,37.7642357 C8.78651884,38.629209 9.2323384,39.5858461 10.0973117,39.9000031 C10.2848059,39.967501 10.4772999,40 10.6664608,40 C11.3472731,40 11.98642,39.580013 12.2322457,38.9025339 L14.2388504,33.384371 C15.6163079,29.5978213 16.3879507,25.6421101 16.5571122,21.6663996 L24.7751917,21.6663996 C24.9435198,25.6421101 25.715996,29.5978213 27.0926201,33.384371 L29.0992248,38.9025339 C29.3458839,39.580013 29.9850308,40 30.6658431,40 C30.8558372,40 31.047498,39.967501 31.2358255,39.8991698 C32.1007988,39.5850128 32.5466183,38.6283757 32.2324614,37.7634024 L30.2258567,32.2452395 C28.9825617,28.8261784 28.2792501,25.2562887 28.1125886,21.6663996 L35.6656887,21.6663996 C36.5856603,21.6663996 37.3323039,20.919756 37.3323039,19.9997844 C37.3323039,19.0798128 36.5856603,18.3331692 35.6656887,18.3331692 L28.1125886,18.3331692 C28.2792501,14.7432801 28.9817284,11.1742236 30.2258567,7.75432924 L32.2324614,2.23616634 C32.5466183,1.37119305 32.1007988,0.414555929 31.2358255,0.100398965 C30.3725188,-0.212924691 29.4150484,0.231228258 29.1000581,1.09703485 L27.0934534,6.61519776 C25.715996,10.4025808 24.9435198,14.3582919 24.7751917,18.3340025 L16.5571122,18.3340025 C16.3879507,14.3582919 15.6163079,10.4025808 14.2388504,6.61603106 L12.2322457,1.09786816 C11.9180888,0.232894873 10.9614517,-0.212924691 10.0964784,0.101232273 C9.23150509,0.415389237 8.78568553,1.37202636 9.09984249,2.23699964 L11.1064472,7.75516255 C12.3497421,11.1742236 13.0522204,14.7441134 13.2188819,18.3340025 L5.66661519,18.3340025 C4.74664361,18.3340025 4,19.0806461 4,20.0006177 C4,20.9205893 4.74664361,21.6672329 5.66661519,21.6672329 Z" id="path-2"></path>
        <filter x="-10.5%" y="-6.2%" width="121.0%" height="117.5%" filterUnits="objectBoundingBox" id="filter-3">
            <feOffset dx="0" dy="1" in="SourceAlpha" result="shadowOffsetOuter1"></feOffset>
            <feGaussianBlur stdDeviation="1" in="shadowOffsetOuter1" result="shadowBlurOuter1"></feGaussianBlur>
            <feColorMatrix values="0 0 0 0 0   0 0 0 0 0   0 0 0 0 0  0 0 0 0.2 0" type="matrix" in="shadowBlurOuter1"></feColorMatrix>
        </filter>
    </defs>
    <g id="Page-1" stroke="none" stroke-width="1" fill="none" fill-rule="evenodd">
        <g id="9P-024---horoscope" transform="translate(-301.000000, -551.000000)">
            <g id="item" transform="translate(283.000000, 536.000000)">
                <g id="Path" transform="translate(16.000000, 16.000000)">
                    <use fill="black" fill-opacity="1" filter="url(#filter-3)" xlink:href="#path-2"></use>
                    <use fill="url(#linearGradient-1)" fill-rule="evenodd" xlink:href="#path-2"></use>
                </g>
            </g>
        </g>
    </g>
</svg>