<?xml version="1.0" encoding="UTF-8"?>
<svg width="24px" height="24px" viewBox="0 0 24 24" version="1.1" xmlns="http://www.w3.org/2000/svg" xmlns:xlink="http://www.w3.org/1999/xlink">
    <title>Shape</title>
    <g id="Page-1" stroke="none" stroke-width="1" fill="none" fill-rule="evenodd">
        <g id="9P-024---sound-expanded" transform="translate(-29.000000, -533.000000)" fill="#FFFFFF">
            <g id="info-bar" transform="translate(0.000000, 272.000000)">
                <g id="symbol" transform="translate(20.000000, 252.000000)">
                    <path d="M31.5567507,16.4916971 C32.0347295,14.068566 30.3596758,11.7901364 28.0231218,11.5323824 C26.8019777,8.57306456 22.8602605,8.07624478 21.0007868,10.7404803 C19.1420698,8.07726415 15.2002107,8.57165686 13.9784519,11.5323824 C11.6404793,11.7903306 9.96717523,14.0702164 10.444823,16.4916971 C8.70328356,17.9897774 8.52326128,20.6596436 9.98746143,22.3908676 C7.56162924,25.7443404 9.86730471,30.6321053 14.0522199,30.6321053 C15.3885555,33.4938066 19.2038268,33.8331586 21.0007395,31.2585788 C22.7991182,33.8352944 26.6142476,33.4910398 27.9492592,30.6321053 C32.1237239,30.6416194 34.4405119,25.7452627 32.0140177,22.3908676 C33.4801566,20.6574593 33.2961149,17.9879328 31.5567507,16.4916971 Z M17.6114311,31.4227939 C15.4971742,31.4227939 14.2772123,28.872776 15.6548769,27.1614539 C15.9211037,26.8307909 15.8757553,26.3413008 15.553635,26.0680135 C15.2315148,25.7948233 14.7546709,25.8413744 14.4884914,26.1719889 C13.8523843,26.962095 13.5138081,27.9852961 13.5672899,29.0334961 C10.6984714,28.720502 9.42067732,25.1994648 11.3171296,23.0287968 C11.3378886,23.0528733 12.0491824,22.0090906 13.566817,21.8431766 C13.5418494,22.3462582 13.6058762,22.8548735 13.7629169,23.3480041 C13.8672324,23.6755605 14.1634866,23.8835113 14.4819185,23.8835113 C14.9945588,23.8835113 15.3614127,23.3683429 15.2012037,22.8653099 C14.7666346,21.5005724 15.4946206,20.0272967 16.8240996,19.5812025 C17.2212646,19.4479082 17.4379818,19.0093865 17.3081312,18.6016399 C17.1782806,18.1938934 16.7512301,17.9712831 16.3538759,18.1047716 C16.1807103,18.1628755 16.0135501,18.2329691 15.8520644,18.3125767 C15.5506087,17.5201892 15.7585777,16.5841682 16.4307176,16.0124492 C16.7524596,15.7387251 16.7971459,15.2491379 16.5305408,14.9188632 C16.2639357,14.5885885 15.78695,14.5427656 15.465208,14.8163926 C14.1548331,15.9310455 13.8516277,17.8047381 14.6134241,19.2613642 C14.1031009,19.8401216 13.9845992,20.2691778 13.9419462,20.2691778 C12.8314541,20.2691778 11.8039038,20.6402757 10.97042,21.2677685 C10.041889,20.0744302 10.3063662,18.2760252 11.6167884,17.4371351 C11.9186697,17.2438924 12.0486149,16.8608533 11.9289311,16.51689 C11.3731176,14.9191545 12.4214743,13.0399282 14.4282948,13.0399282 C14.770323,13.0399282 15.0713531,12.8035808 15.1594491,12.4621416 C15.4534335,11.3226841 16.4616907,10.5268987 17.6113838,10.5268987 C19.0100913,10.5268987 20.1480572,11.6949956 20.1480572,13.130846 L20.1480572,28.8188466 C20.1480572,30.254697 19.0101385,31.4227939 17.6114311,31.4227939 L17.6114311,31.4227939 Z M30.8387895,21.2678171 C29.9364083,20.5884822 28.8420884,20.2510233 27.8526042,20.2699544 C27.6811882,19.9010409 27.4695308,19.5717855 27.1958326,19.2613642 C27.9570143,17.8059031 27.6555586,15.9320164 26.3440487,14.8163926 C26.0221649,14.542717 25.5452737,14.5885885 25.2787159,14.9188632 C25.0121108,15.2491865 25.0568445,15.7387736 25.3785391,16.0124492 C26.0506791,16.5841196 26.2586953,17.5201892 25.9571923,18.3125767 C25.7956593,18.2329691 25.6285464,18.1628755 25.4553808,18.1047716 C25.0581685,17.9713802 24.6309761,18.1939419 24.5011255,18.6016399 C24.371275,19.0093379 24.5879921,19.4479082 24.9851571,19.5812025 C26.3146361,20.0272967 27.0426695,21.5005724 26.608053,22.8653099 C26.4782024,23.2730079 26.6949196,23.7115782 27.0920846,23.8448724 C27.4870743,23.9774386 27.9158272,23.7577894 28.0463398,23.3480041 C28.2033805,22.8548249 28.2674546,22.3462096 28.2424397,21.843128 C30.0202484,22.0375358 31.3897454,23.5893513 31.3897454,25.4382392 C31.3897454,27.3020779 30.0086631,28.8407387 28.2419668,29.033399 C28.2954014,27.9892765 27.9593787,26.9650074 27.3208126,26.1718918 C27.0546804,25.8411802 26.5777419,25.7947262 26.255669,26.0679164 C25.9335487,26.3412037 25.8882003,26.8307423 26.1544271,27.1613568 C27.5295855,28.8695722 26.3131702,31.4226968 24.1978729,31.4226968 C22.7991655,31.4226968 21.6611996,30.2545999 21.6611996,28.8187495 L21.6611996,13.130846 C21.6611996,11.6950441 22.7991182,10.5268987 24.1978729,10.5268987 C25.347566,10.5268987 26.3558232,11.3227327 26.6498076,12.4621416 C26.7400788,12.8119299 27.0524579,13.0522091 27.4060241,13.0395399 C29.1782057,12.97265 30.4844194,14.7804235 29.8803257,16.5169385 C29.7606418,16.8609019 29.890587,17.2439409 30.1924683,17.4371837 C31.5042146,18.2768989 31.7662801,20.0758865 30.8387895,21.2678171 L30.8387895,21.2678171 Z" id="Shape"></path>
                </g>
            </g>
        </g>
    </g>
</svg>