<?xml version="1.0" encoding="UTF-8"?>
<svg width="24px" height="18px" viewBox="0 0 24 18" version="1.1" xmlns="http://www.w3.org/2000/svg" xmlns:xlink="http://www.w3.org/1999/xlink">
    <title>Shape</title>
    <g id="Page-1" stroke="none" stroke-width="1" fill="none" fill-rule="evenodd">
        <g id="9P-024---sound-expanded" transform="translate(-29.000000, -314.000000)" fill="#FFFFFF" fill-rule="nonzero">
            <g id="info-bar" transform="translate(0.000000, 272.000000)">
                <g id="symbol" transform="translate(20.000000, 30.000000)">
                    <path d="M21,23.4545455 C22.8909107,23.4545455 24.4285714,24.9227216 24.4285714,26.7272727 C24.4285714,28.5318239 22.8909107,30 21,30 C19.1090893,30 17.5714286,28.5318239 17.5714286,26.7272727 C17.5714286,26.2754318 17.9547857,25.9090909 18.4285714,25.9090909 C18.8967168,25.9090909 19.2765739,26.2667613 19.2855518,26.7111724 L19.2857143,26.7272727 C19.2857143,27.6297784 20.0549464,28.3636364 21,28.3636364 C21.9450536,28.3636364 22.7142857,27.6297784 22.7142857,26.7272727 C22.7142857,25.8337921 21.9603613,25.1056031 21.0282983,25.0911287 L21,25.0909091 L9.85714286,25.0909091 C9.38335714,25.0909091 9,24.7245682 9,24.2727273 C9,23.8262654 9.37428392,23.46328 9.84026088,23.4547007 L9.85714286,23.4545455 L21,23.4545455 Z M29.5714286,15.2727273 C31.4623393,15.2727273 33,16.7409034 33,18.5454545 C33,20.3319602 31.4929387,21.7887847 29.6280487,21.8177425 L29.5714286,21.8181818 L9.92496429,21.8181818 C9.45117857,21.8181818 9.06782143,21.4518409 9.06782143,21 C9.06782143,20.5535381 9.44210535,20.1905527 9.90808231,20.1819735 L9.92496429,20.1818182 L29.5714286,20.1818182 C30.5164821,20.1818182 31.2857143,19.4479602 31.2857143,18.5454545 C31.2857143,17.6429489 30.5164821,16.9090909 29.5714286,16.9090909 C28.6358255,16.9090909 27.8725451,17.6283451 27.857373,18.5184305 L27.8571429,18.5454545 C27.8571429,18.9972955 27.4737857,19.3636364 27,19.3636364 C26.5262143,19.3636364 26.1428571,18.9972955 26.1428571,18.5454545 C26.1428571,16.7409034 27.6805179,15.2727273 29.5714286,15.2727273 Z M21,12 C22.8909107,12 24.4285714,13.4681761 24.4285714,15.2727273 C24.4285714,17.0592329 22.9215102,18.5160574 21.0566202,18.5450152 L21,18.5454545 L9.85714286,18.5454545 C9.38335714,18.5454545 9,18.1791136 9,17.7272727 C9,17.2808109 9.37428392,16.9178254 9.84026088,16.9092462 L9.85714286,16.9090909 L21,16.9090909 C21.9450536,16.9090909 22.7142857,16.175233 22.7142857,15.2727273 C22.7142857,14.3702216 21.9450536,13.6363636 21,13.6363636 C20.064397,13.6363636 19.3011165,14.3556178 19.2859445,15.2457033 L19.2857143,15.2727273 C19.2857143,15.7245682 18.9023571,16.0909091 18.4285714,16.0909091 C17.9547857,16.0909091 17.5714286,15.7245682 17.5714286,15.2727273 C17.5714286,13.4681761 19.1090893,12 21,12 Z" id="Shape"></path>
                </g>
            </g>
        </g>
    </g>
</svg>