<?xml version="1.0" encoding="UTF-8"?>
<svg width="44px" height="44px" viewBox="0 0 44 44" version="1.1" xmlns="http://www.w3.org/2000/svg" xmlns:xlink="http://www.w3.org/1999/xlink">
    <title>Path</title>
    <defs>
        <linearGradient x1="50%" y1="98.818735%" x2="50%" y2="0%" id="linearGradient-1">
            <stop stop-color="#7044E9" offset="0%"></stop>
            <stop stop-color="#8281DE" offset="100%"></stop>
        </linearGradient>
        <path d="M36.1775014,30.4883369 C35.5275017,29.8375038 34.4708354,29.8375038 33.8208357,30.4883369 C33.1700026,31.13917 33.1700026,32.1941696 33.8208357,32.8450027 L34.3091688,33.3333358 L29.1658374,33.3333358 C28.2466711,33.3333358 27.4991714,32.5858361 27.4991714,31.6666698 L27.4991714,6.66667923 C27.4991714,4.00668023 25.921672,1.60501447 23.4808396,0.548348202 C21.7975069,-0.179984857 19.8675076,-0.179984857 18.1850082,0.548348202 C17.2650086,0.946681385 16.4683422,1.53584783 15.8325091,2.25751422 C15.196676,1.53584783 14.4000096,0.946681385 13.4808433,0.548348202 C11.7975106,-0.179984857 9.86751136,-0.179984857 8.18501199,0.548348202 C6.94667912,1.08418133 5.93417951,1.96834767 5.23334644,3.05418059 C4.55668002,2.08918095 3.75418033,1.20251462 2.80751402,0.445014907 L2.70668072,0.364181604 C1.98668099,-0.209984846 0.938348055,-0.0924848902 0.364181604,0.626681505 C-0.209984846,1.3458479 -0.0924848902,2.39501417 0.626681505,2.96918062 L0.726681468,3.04834726 C2.91334731,4.7983466 4.16668017,7.40667895 4.16668017,10.2066779 L4.16668017,13.3333434 L4.16668017,28.3333377 C4.16668017,29.2533374 4.91334656,30 5.83334621,30 C6.75334586,30 7.50001225,29.2533374 7.50001225,28.3333377 L7.50001225,13.3333434 L7.50001225,10.2066779 L7.50001225,6.66667923 C7.50001225,5.33667973 8.28834528,4.13584685 9.50917816,3.60751372 C10.3508445,3.24251385 11.3158441,3.24251385 12.1575105,3.60751372 C13.37751,4.13584685 14.1658431,5.33667973 14.1658431,6.66667923 L14.1658431,13.3333434 L14.1658431,28.3333377 C14.1658431,29.2533374 14.9125095,30 15.8325091,30 C16.7525088,30 17.4991751,29.2533374 17.4991751,28.3333377 L17.4991751,13.3333434 L17.4991751,6.66667923 C17.4991751,5.33667973 18.2875082,4.13584685 19.5083411,3.60751372 C20.3500074,3.24251385 21.315007,3.24251385 22.1566734,3.60751372 C23.3775063,4.13584685 24.1658393,5.33667973 24.1658393,6.66667923 L24.1658393,31.6666698 C24.1658393,34.4241688 26.4083385,36.6666679 29.1658374,36.6666679 L34.3091688,36.6666679 L33.8208357,37.1550011 C33.1700026,37.8058342 33.1700026,38.8608338 33.8208357,39.5116669 C34.1458355,39.8375001 34.572502,40 34.9991686,40 C35.4258351,40 35.8525016,39.8375001 36.1775014,39.5116669 L39.5108335,36.1783348 C40.1616666,35.5275017 40.1616666,34.4725021 39.5108335,33.821669 L36.1775014,30.4883369 Z" id="path-2"></path>
        <filter x="-8.8%" y="-6.2%" width="117.5%" height="117.5%" filterUnits="objectBoundingBox" id="filter-3">
            <feOffset dx="0" dy="1" in="SourceAlpha" result="shadowOffsetOuter1"></feOffset>
            <feGaussianBlur stdDeviation="1" in="shadowOffsetOuter1" result="shadowBlurOuter1"></feGaussianBlur>
            <feColorMatrix values="0 0 0 0 0   0 0 0 0 0   0 0 0 0 0  0 0 0 0.2 0" type="matrix" in="shadowBlurOuter1"></feColorMatrix>
        </filter>
    </defs>
    <g id="Page-1" stroke="none" stroke-width="1" fill="none" fill-rule="evenodd">
        <g id="9P-024---horoscope" transform="translate(-297.000000, -413.000000)">
            <g id="item" transform="translate(283.000000, 398.000000)">
                <g id="Path" transform="translate(16.000000, 16.000000)">
                    <use fill="black" fill-opacity="1" filter="url(#filter-3)" xlink:href="#path-2"></use>
                    <use fill="url(#linearGradient-1)" fill-rule="evenodd" xlink:href="#path-2"></use>
                </g>
            </g>
        </g>
    </g>
</svg>