<?xml version="1.0" encoding="UTF-8"?>
<svg width="23px" height="16px" viewBox="0 0 23 16" version="1.1" xmlns="http://www.w3.org/2000/svg" xmlns:xlink="http://www.w3.org/1999/xlink">
    <title>rewind-left copy</title>
    <defs>
        <path d="M27.8112,14.2317333 L21.0125333,8.61306667 C20.2005333,7.94373333 19.0432,7.80906667 18.0658667,8.26773333 C17.2032,8.67573333 16.6672,9.48506667 16.6672,10.3824 L16.6672,13.8370667 L10.3458667,8.61306667 C9.53386667,7.94373333 8.3752,7.80906667 7.3992,8.26773333 C6.53653333,8.67573333 6.00053333,9.48506667 6.00053333,10.3824 L6.00053333,21.6170667 C6.00053333,22.5144 6.53653333,23.3237333 7.3992,23.7317333 C7.78453333,23.9130667 8.1992,24.0010667 8.6072,24.0010667 C9.2352,24.0010667 9.85386667,23.7917333 10.3458667,23.3850667 L16.6672,18.1637333 L16.6672,21.6170667 C16.6672,22.5144 17.2032,23.3237333 18.0658667,23.7317333 C18.4512,23.9130667 18.8658667,24.0010667 19.2738667,24.0010667 C19.9018667,24.0010667 20.5205333,23.7917333 21.0125333,23.3850667 L27.8112,17.7677333 C28.3552,17.3197333 28.6672,16.6744 28.6672,15.9997333 C28.6672,15.3250667 28.3552,14.6797333 27.8112,14.2317333" id="path-1"></path>
    </defs>
    <g id="Page-1" stroke="none" stroke-width="1" fill="none" fill-rule="evenodd">
        <g id="9P-024---sound-mode---sleep" transform="translate(-282.000000, -756.000000)">
            <g id="bottom-player" transform="translate(0.000000, 604.000000)">
                <g id="player" transform="translate(20.000000, 96.000000)">
                    <g id="Group-5" transform="translate(48.000000, 48.000000)">
                        <g id="rewind-left-copy" transform="translate(208.000000, 0.000000)">
                            <mask id="mask-2" fill="white">
                                <use xlink:href="#path-1"></use>
                            </mask>
                            <use id="🎨-Icon-Сolor" fill="#8F9BB3" xlink:href="#path-1"></use>
                        </g>
                    </g>
                </g>
            </g>
        </g>
    </g>
</svg>