<?xml version="1.0" encoding="UTF-8"?>
<svg width="23px" height="16px" viewBox="0 0 23 16" version="1.1" xmlns="http://www.w3.org/2000/svg" xmlns:xlink="http://www.w3.org/1999/xlink">
    <title>rewind-left</title>
    <defs>
        <path d="M24.6002667,8.26826667 C23.6216,7.80826667 22.4656,7.94426667 21.6549333,8.61493333 L15.3336,13.8362667 L15.3336,10.3829333 C15.3336,9.4856 14.7962667,8.67626667 13.9336,8.26826667 C12.9549333,7.80826667 11.7989333,7.94426667 10.9882667,8.61493333 L4.18826667,14.2322667 C3.6456,14.6802667 3.3336,15.3256 3.3336,16.0002667 C3.3336,16.6749333 3.6456,17.3202667 4.18826667,17.7682667 L10.9882667,23.3869333 C11.4789333,23.7922667 12.0976,24.0016 12.7256,24.0016 C13.1349333,24.0016 13.5482667,23.9122667 13.9336,23.7322667 C14.7962667,23.3242667 15.3336,22.5149333 15.3336,21.6176 L15.3336,18.1629333 L21.6549333,23.3869333 C22.1456,23.7922667 22.7642667,24.0016 23.3922667,24.0016 C23.8016,24.0016 24.2149333,23.9122667 24.6002667,23.7322667 C25.4629333,23.3242667 26.0002667,22.5149333 26.0002667,21.6176 L26.0002667,10.3829333 C26.0002667,9.4856 25.4629333,8.67626667 24.6002667,8.26826667" id="path-1"></path>
    </defs>
    <g id="Page-1" stroke="none" stroke-width="1" fill="none" fill-rule="evenodd">
        <g id="9P-024---sound-mode---sleep" transform="translate(-71.000000, -756.000000)">
            <g id="bottom-player" transform="translate(0.000000, 604.000000)">
                <g id="player" transform="translate(20.000000, 96.000000)">
                    <g id="rewind-left" transform="translate(48.000000, 48.000000)">
                        <mask id="mask-2" fill="white">
                            <use xlink:href="#path-1"></use>
                        </mask>
                        <use id="🎨-Icon-Сolor" fill="#8F9BB3" xlink:href="#path-1"></use>
                    </g>
                </g>
            </g>
        </g>
    </g>
</svg>