<?xml version="1.0" encoding="UTF-8"?>
<svg width="32px" height="28px" viewBox="0 0 32 28" version="1.1" xmlns="http://www.w3.org/2000/svg" xmlns:xlink="http://www.w3.org/1999/xlink">
    <title>settings-2</title>
    <defs>
        <filter x="-20.3%" y="-20.3%" width="140.6%" height="140.6%" filterUnits="objectBoundingBox" id="filter-1">
            <feOffset dx="0" dy="1" in="SourceAlpha" result="shadowOffsetOuter1"></feOffset>
            <feGaussianBlur stdDeviation="1" in="shadowOffsetOuter1" result="shadowBlurOuter1"></feGaussianBlur>
            <feColorMatrix values="0 0 0 0 0   0 0 0 0 0   0 0 0 0 0  0 0 0 0.1 0" type="matrix" in="shadowBlurOuter1" result="shadowMatrixOuter1"></feColorMatrix>
            <feMerge>
                <feMergeNode in="shadowMatrixOuter1"></feMergeNode>
                <feMergeNode in="SourceGraphic"></feMergeNode>
            </feMerge>
        </filter>
        <path d="M14.6666667,25.3333333 C13.9306667,25.3333333 13.3333333,24.736 13.3333333,24 C13.3333333,23.264 13.9306667,22.6666667 14.6666667,22.6666667 C15.4026667,22.6666667 16,23.264 16,24 C16,24.736 15.4026667,25.3333333 14.6666667,25.3333333 M28,22.6666667 L18.42,22.6666667 C17.868,21.1186667 16.4026667,20 14.6666667,20 C12.9306667,20 11.4653333,21.1186667 10.9133333,22.6666667 L4,22.6666667 C3.26266667,22.6666667 2.66666667,23.2626667 2.66666667,24 C2.66666667,24.7373333 3.26266667,25.3333333 4,25.3333333 L10.9133333,25.3333333 C11.4653333,26.8813333 12.9306667,28 14.6666667,28 C16.4026667,28 17.868,26.8813333 18.42,25.3333333 L28,25.3333333 C28.7373333,25.3333333 29.3333333,24.7373333 29.3333333,24 C29.3333333,23.2626667 28.7373333,22.6666667 28,22.6666667 M25.3333333,17.3333333 C24.5973333,17.3333333 24,16.736 24,16 C24,15.264 24.5973333,14.6666667 25.3333333,14.6666667 C26.0693333,14.6666667 26.6666667,15.264 26.6666667,16 C26.6666667,16.736 26.0693333,17.3333333 25.3333333,17.3333333 M25.3333333,12 C23.5973333,12 22.132,13.1186667 21.58,14.6666667 L4,14.6666667 C3.26266667,14.6666667 2.66666667,15.2626667 2.66666667,16 C2.66666667,16.7373333 3.26266667,17.3333333 4,17.3333333 L21.58,17.3333333 C22.132,18.8813333 23.5973333,20 25.3333333,20 C27.5386667,20 29.3333333,18.2053333 29.3333333,16 C29.3333333,13.7946667 27.5386667,12 25.3333333,12 M9.33333333,6.66666667 C10.0693333,6.66666667 10.6666667,7.264 10.6666667,8 C10.6666667,8.736 10.0693333,9.33333333 9.33333333,9.33333333 C8.59733333,9.33333333 8,8.736 8,8 C8,7.264 8.59733333,6.66666667 9.33333333,6.66666667 M4,9.33333333 L5.58,9.33333333 C6.132,10.8813333 7.59733333,12 9.33333333,12 C11.0693333,12 12.5346667,10.8813333 13.0866667,9.33333333 L28,9.33333333 C28.7373333,9.33333333 29.3333333,8.73733333 29.3333333,8 C29.3333333,7.26266667 28.7373333,6.66666667 28,6.66666667 L13.0866667,6.66666667 C12.5346667,5.11866667 11.0693333,4 9.33333333,4 C7.59733333,4 6.132,5.11866667 5.58,6.66666667 L4,6.66666667 C3.26266667,6.66666667 2.66666667,7.26266667 2.66666667,8 C2.66666667,8.73733333 3.26266667,9.33333333 4,9.33333333" id="path-2"></path>
    </defs>
    <g id="Page-1" stroke="none" stroke-width="1" fill="none" fill-rule="evenodd">
        <g id="9P-024---sound-mode---focus" transform="translate(-323.000000, -63.000000)">
            <g id="settings-2" transform="translate(323.000000, 60.000000)" filter="url(#filter-1)">
                <mask id="mask-3" fill="white">
                    <use xlink:href="#path-2"></use>
                </mask>
                <use id="🎨-Icon-Сolor" fill="#FFFFFF" xlink:href="#path-2"></use>
            </g>
        </g>
    </g>
</svg>