<?xml version="1.0" encoding="UTF-8"?>
<svg width="24px" height="24px" viewBox="0 0 24 24" version="1.1" xmlns="http://www.w3.org/2000/svg" xmlns:xlink="http://www.w3.org/1999/xlink">
    <title>Shape</title>
    <g id="Page-1" stroke="none" stroke-width="1" fill="none" fill-rule="evenodd">
        <g id="9P-024---sound-expanded" transform="translate(-29.000000, -385.000000)" fill="#FFFFFF">
            <g id="info-bar" transform="translate(0.000000, 272.000000)">
                <g id="symbol" transform="translate(20.000000, 104.000000)">
                    <path d="M32.4326952,22.6584414 C32.1873267,22.5968845 31.9419582,22.6584414 31.7272607,22.8123336 C30.929813,23.4894595 30.0096809,24.0434716 28.9975357,24.4128129 C28.0467327,24.7821543 27.0039164,24.966825 25.899758,24.966825 C23.4154015,24.966825 21.1457426,23.9511362 19.520176,22.3198785 C17.8946095,20.6886207 16.8824642,18.4110155 16.8824642,15.9179612 C16.8824642,14.871494 17.0664906,13.8558052 17.3732013,12.9324517 C17.710583,11.9475414 18.2013201,11.0549664 18.8454125,10.2855052 C19.1214521,9.94694226 19.06011,9.45448709 18.7227283,9.17748105 C18.5080308,9.02358881 18.2626623,8.96203192 18.0172937,9.02358881 C15.410253,9.73149312 13.1405941,11.301194 11.5150275,13.3941285 C9.95080308,15.4562845 9,18.0108957 9,20.8117345 C9,24.1665854 10.349527,27.2136517 12.5578438,29.4297 C14.7661606,31.6457483 17.8025962,33 21.1457426,33 C23.9674807,33 26.5745214,32.0150897 28.660154,30.3838319 C30.7764576,28.7217957 32.310011,26.3518552 32.9541034,23.6433517 C33.1074587,23.181675 32.8620902,22.7507767 32.4326952,22.6584414 Z M27.740022,29.0911371 C25.9611001,30.5069457 23.6914411,31.3687422 21.2070847,31.3687422 C18.2933333,31.3687422 15.6556216,30.1683828 13.7540154,28.260119 C11.8524092,26.3518552 10.6562376,23.7049086 10.6562376,20.780956 C10.6562376,18.3494586 11.4536854,16.1334104 12.8338834,14.3482604 C13.7846865,13.1171224 14.9808581,12.1014336 16.3610561,11.3935293 C16.2077008,11.7320923 16.0543454,12.0706552 15.9316612,12.4399966 C15.5329373,13.5480207 15.3489109,14.7176017 15.3489109,15.9487397 C15.3489109,18.8726923 16.5450825,21.5504173 18.4466887,23.458681 C20.3482948,25.3669448 23.0166777,26.5673043 25.930429,26.5673043 C27.2186138,26.5673043 28.4454565,26.3518552 29.580286,25.9209569 C29.9790099,25.7670647 30.3777337,25.6131724 30.7457866,25.4285017 C30.0096809,26.8443103 28.9975357,28.1062267 27.740022,29.0911371 Z" id="Shape"></path>
                </g>
            </g>
        </g>
    </g>
</svg>