<?xml version="1.0" encoding="UTF-8"?>
<svg width="44px" height="44px" viewBox="0 0 44 44" version="1.1" xmlns="http://www.w3.org/2000/svg" xmlns:xlink="http://www.w3.org/1999/xlink">
    <title>icon</title>
    <defs>
        <linearGradient x1="50%" y1="98.818735%" x2="50%" y2="0%" id="linearGradient-1">
            <stop stop-color="#7044E9" offset="0%"></stop>
            <stop stop-color="#8281DE" offset="100%"></stop>
        </linearGradient>
        <path d="M38.3325151,31.6670323 L29.1658484,31.6670323 C28.8491817,31.6670323 28.5566817,31.573699 28.3041817,31.4195323 C31.3150151,27.9728656 33.6458484,24.028699 35.0891817,19.8778656 C35.5958484,18.4195323 35.8325151,17.398699 35.8325151,16.6670323 C35.8325151,13.4503656 33.2158484,10.833699 29.9991817,10.833699 C29.1033484,10.833699 28.2583484,11.0420323 27.4991817,11.4045323 L27.4991817,6.66703229 C27.4991817,4.00703229 25.9216817,1.60536562 23.4808484,0.548698953 C21.7975151,-0.17963438 19.8675151,-0.17963438 18.1850151,0.548698953 C17.2650151,0.947032286 16.4683484,1.53619895 15.8325151,2.25786562 C15.1966817,1.53619895 14.4000151,0.947032286 13.4808484,0.548698953 C11.7975151,-0.17963438 9.86751507,-0.17963438 8.18501507,0.548698953 C6.94668174,1.08453229 5.93418174,1.96869895 5.23334841,3.05453229 C4.55668174,2.08953229 3.75418174,1.20286562 2.80751507,0.44536562 L2.70668174,0.364532286 C1.98668174,-0.210467714 0.938348408,-0.0921343802 0.364181742,0.627032286 C-0.209984925,1.34619895 -0.092484925,2.39536562 0.626681742,2.96953229 L0.726681742,3.04869895 C2.91334841,4.79869895 4.16668174,7.40703229 4.16668174,10.2070323 L4.16668174,18.333699 L4.16668174,28.333699 C4.16668174,29.253699 4.91334841,30.0003656 5.83334841,30.0003656 C6.75334841,30.0003656 7.50001507,29.253699 7.50001507,28.333699 L7.50001507,18.333699 L7.50001507,10.2070323 L7.50001507,6.66703229 C7.50001507,5.33703229 8.28834841,4.13619895 9.50918174,3.60786562 C10.3508484,3.24286562 11.3158484,3.24286562 12.1575151,3.60786562 C13.3775151,4.13619895 14.1658484,5.33703229 14.1658484,6.66703229 L14.1658484,18.333699 L14.1658484,28.333699 C14.1658484,29.253699 14.9125151,30.0003656 15.8325151,30.0003656 C16.7525151,30.0003656 17.4991817,29.253699 17.4991817,28.333699 L17.4991817,18.333699 L17.4991817,6.66703229 C17.4991817,5.33703229 18.2875151,4.13619895 19.5083484,3.60786562 C20.3500151,3.24286562 21.3150151,3.24286562 22.1566817,3.60786562 C23.3775151,4.13619895 24.1658484,5.33703229 24.1658484,6.66703229 L24.1658484,30.0003656 C24.1658484,30.3053656 24.1975151,30.6028656 24.2500151,30.8928656 L17.9875151,37.1553656 C17.3366817,37.806199 17.3366817,38.861199 17.9875151,39.5120323 C18.3125151,39.8378656 18.7391817,40.0003656 19.1658484,40.0003656 C19.5925151,40.0003656 20.0183484,39.8378656 20.3441817,39.5120323 L25.9941817,33.8628656 C26.8583484,34.5728656 27.9625151,35.0003656 29.1658484,35.0003656 L38.3325151,35.0003656 C39.2525151,35.0003656 39.9991817,34.253699 39.9991817,33.333699 C39.9991817,32.413699 39.2525151,31.6670323 38.3325151,31.6670323 L38.3325151,31.6670323 Z M29.9991817,14.1670323 C31.3775151,14.1670323 32.4991817,15.288699 32.4991817,16.6670323 C32.4991817,16.7520323 32.4725151,17.2545323 31.9408484,18.783699 C30.9233484,21.7095323 29.4100151,24.523699 27.4991817,27.1070323 L27.4991817,16.6670323 C27.4991817,15.288699 28.6208484,14.1670323 29.9991817,14.1670323 Z" id="path-2"></path>
        <filter x="-8.8%" y="-6.2%" width="117.5%" height="117.5%" filterUnits="objectBoundingBox" id="filter-3">
            <feOffset dx="0" dy="1" in="SourceAlpha" result="shadowOffsetOuter1"></feOffset>
            <feGaussianBlur stdDeviation="1" in="shadowOffsetOuter1" result="shadowBlurOuter1"></feGaussianBlur>
            <feColorMatrix values="0 0 0 0 0   0 0 0 0 0   0 0 0 0 0  0 0 0 0.2 0" type="matrix" in="shadowBlurOuter1"></feColorMatrix>
        </filter>
    </defs>
    <g id="Page-1" stroke="none" stroke-width="1" fill="none" fill-rule="evenodd">
        <g id="9P-024---horoscope" transform="translate(-122.000000, -413.000000)">
            <g id="item" transform="translate(108.000000, 398.000000)">
                <g id="icon" transform="translate(16.000000, 16.000000)">
                    <rect id="bound" fill="#D8D8D8" opacity="0" x="0" y="0" width="40" height="40"></rect>
                    <g id="Shape">
                        <use fill="black" fill-opacity="1" filter="url(#filter-3)" xlink:href="#path-2"></use>
                        <use fill="url(#linearGradient-1)" fill-rule="evenodd" xlink:href="#path-2"></use>
                    </g>
                </g>
            </g>
        </g>
    </g>
</svg>